<svg xmlns="http://www.w3.org/2000/svg" viewBox="0 0 600 400" fill="none">
  <defs>
    <linearGradient id="n-bg" x1="0" y1="0" x2="0" y2="1">
      <stop offset="0%" stop-color="#F5F4F2"/>
      <stop offset="100%" stop-color="#EDECEA"/>
    </linearGradient>
    <linearGradient id="n-foliage" x1="0" y1="0" x2="0" y2="1">
      <stop offset="0%" stop-color="#3A5C32"/>
      <stop offset="100%" stop-color="#263D21"/>
    </linearGradient>
  </defs>
  <rect width="600" height="400" fill="url(#n-bg)"/>

  <rect x="288" y="260" width="24" height="100" rx="2" fill="#44403C"/>

  <polygon points="300,60 240,180 360,180" fill="url(#n-foliage)" opacity="0.9"/>
  <polygon points="300,100 230,230 370,230" fill="url(#n-foliage)" opacity="0.85"/>
  <polygon points="300,140 220,280 380,280" fill="url(#n-foliage)" opacity="0.75"/>

  <rect x="140" y="280" width="18" height="90" rx="1" fill="#57534E"/>
  <polygon points="149,120 114,200 184,200" fill="url(#n-foliage)" opacity="0.45"/>
  <polygon points="149,160 105,250 193,250" fill="url(#n-foliage)" opacity="0.35"/>

  <rect x="440" y="290" width="18" height="80" rx="1" fill="#57534E"/>
  <polygon points="449,140 414,220 484,220" fill="url(#n-foliage)" opacity="0.45"/>
  <polygon points="449,180 405,270 493,270" fill="url(#n-foliage)" opacity="0.35"/>
</svg>
